<?xml version="1.0" encoding="UTF-8" standalone="no"?><!-- Generator: Gravit.io --><svg xmlns="http://www.w3.org/2000/svg" xmlns:xlink="http://www.w3.org/1999/xlink" style="isolation:isolate" viewBox="15 670 48.125 55" width="48.125pt" height="55pt"><g><path d=" M 63.125 708.672 L 63.125 672.578 C 63.125 671.149 61.976 670 60.547 670 L 25.313 670 C 19.619 670 15 674.619 15 680.313 L 15 714.688 C 15 720.381 19.619 725 25.313 725 L 60.547 725 C 61.976 725 63.125 723.851 63.125 722.422 L 63.125 720.703 C 63.125 719.897 62.749 719.167 62.169 718.694 C 61.718 717.04 61.718 712.324 62.169 710.67 C 62.749 710.208 63.125 709.478 63.125 708.672 Z  M 28.75 684.395 C 28.75 684.04 29.04 683.75 29.395 683.75 L 52.168 683.75 C 52.522 683.75 52.813 684.04 52.813 684.395 L 52.813 686.543 C 52.813 686.897 52.522 687.188 52.168 687.188 L 29.395 687.188 C 29.04 687.188 28.75 686.897 28.75 686.543 L 28.75 684.395 Z  M 28.75 691.27 C 28.75 690.915 29.04 690.625 29.395 690.625 L 52.168 690.625 C 52.522 690.625 52.813 690.915 52.813 691.27 L 52.813 693.418 C 52.813 693.772 52.522 694.063 52.168 694.063 L 29.395 694.063 C 29.04 694.063 28.75 693.772 28.75 693.418 L 28.75 691.27 Z  M 55.971 718.125 L 25.313 718.125 C 23.411 718.125 21.875 716.589 21.875 714.688 C 21.875 712.797 23.422 711.25 25.313 711.25 L 55.971 711.25 C 55.767 713.087 55.767 716.288 55.971 718.125 Z " fill="rgb(255,0,93)"/></g></svg>