<?xml version="1.0" encoding="UTF-8" standalone="no"?><!-- Generator: Gravit.io --><svg xmlns="http://www.w3.org/2000/svg" xmlns:xlink="http://www.w3.org/1999/xlink" style="isolation:isolate" viewBox="1009 2.23 33.453 32.112" width="33.453pt" height="32.112pt"><path d=" M 1029.263 15.417 C 1029.624 15.417 1029.917 15.125 1029.917 14.764 L 1029.917 14.158 C 1029.917 13.797 1029.624 13.505 1029.263 13.505 C 1028.902 13.505 1028.61 13.797 1028.61 14.158 L 1028.61 14.764 C 1028.61 15.125 1028.902 15.417 1029.263 15.417 L 1029.263 15.417 L 1029.263 15.417 Z  M 1022.875 20.483 L 1022.269 20.483 C 1021.908 20.483 1021.616 20.776 1021.616 21.136 C 1021.616 21.497 1021.908 21.79 1022.269 21.79 L 1022.875 21.79 C 1023.235 21.79 1023.528 21.497 1023.528 21.136 C 1023.528 20.776 1023.235 20.483 1022.875 20.483 L 1022.875 20.483 L 1022.875 20.483 L 1022.875 20.483 Z  M 1038.126 29.362 C 1037.954 29.362 1037.786 29.432 1037.664 29.553 C 1037.542 29.675 1037.473 29.843 1037.473 30.015 C 1037.473 30.187 1037.542 30.355 1037.664 30.477 C 1037.786 30.599 1037.954 30.668 1038.126 30.668 C 1038.298 30.668 1038.466 30.599 1038.588 30.477 C 1038.71 30.355 1038.78 30.187 1038.78 30.015 C 1038.78 29.843 1038.71 29.675 1038.588 29.553 C 1038.466 29.432 1038.298 29.362 1038.126 29.362 L 1038.126 29.362 L 1038.126 29.362 L 1038.126 29.362 L 1038.126 29.362 L 1038.126 29.362 L 1038.126 29.362 L 1038.126 29.362 Z  M 1029.255 21.868 C 1028.856 21.868 1028.532 21.543 1028.532 21.144 C 1028.532 20.745 1028.856 20.421 1029.255 20.421 C 1029.654 20.421 1029.979 20.745 1029.979 21.144 C 1029.979 21.543 1029.654 21.868 1029.255 21.868 L 1029.255 21.868 L 1029.255 21.868 L 1029.255 21.868 L 1029.255 21.868 L 1029.255 21.868 L 1029.255 21.868 Z  M 1036.241 20.499 L 1035.636 20.499 C 1035.275 20.499 1034.983 20.791 1034.983 21.152 C 1034.983 21.513 1035.275 21.806 1035.636 21.806 L 1036.241 21.806 C 1036.602 21.806 1036.895 21.513 1036.895 21.152 C 1036.895 20.791 1036.602 20.499 1036.241 20.499 L 1036.241 20.499 L 1036.241 20.499 L 1036.241 20.499 L 1036.241 20.499 Z  M 1027.664 8.048 L 1027.664 6.673 L 1030.827 6.673 L 1030.827 8.045 C 1029.777 7.92 1028.714 7.921 1027.664 8.048 L 1027.664 8.048 L 1027.664 8.048 L 1027.664 8.048 L 1027.664 8.048 L 1027.664 8.048 L 1027.664 8.048 L 1027.664 8.048 L 1027.664 8.048 Z  M 1025.978 4.452 C 1025.978 3.947 1026.389 3.537 1026.893 3.537 L 1031.598 3.537 C 1032.102 3.537 1032.512 3.947 1032.512 4.452 C 1032.512 4.956 1032.102 5.367 1031.598 5.367 L 1031.48 5.367 L 1027.01 5.367 L 1026.893 5.367 C 1026.389 5.367 1025.978 4.956 1025.978 4.452 L 1025.978 4.452 L 1025.978 4.452 L 1025.978 4.452 L 1025.978 4.452 L 1025.978 4.452 L 1025.978 4.452 L 1025.978 4.452 L 1025.978 4.452 Z  M 1029.247 26.872 C 1028.887 26.872 1028.594 27.164 1028.594 27.525 L 1028.594 28.13 C 1028.594 28.491 1028.887 28.784 1029.247 28.784 C 1029.608 28.784 1029.901 28.491 1029.901 28.13 L 1029.901 27.525 C 1029.901 27.164 1029.608 26.872 1029.247 26.872 L 1029.247 26.872 Z  M 1033.388 16.087 L 1030.152 19.323 C 1029.882 19.19 1029.577 19.114 1029.255 19.114 C 1028.933 19.114 1028.629 19.19 1028.358 19.323 L 1026.91 17.875 C 1026.655 17.62 1026.241 17.62 1025.986 17.875 C 1025.731 18.13 1025.731 18.544 1025.986 18.799 L 1027.434 20.247 C 1027.3 20.518 1027.225 20.823 1027.225 21.144 C 1027.225 22.264 1028.136 23.175 1029.255 23.175 C 1030.375 23.175 1031.286 22.264 1031.286 21.144 C 1031.286 20.823 1031.21 20.518 1031.076 20.247 L 1034.217 17.106 L 1034.217 17.106 L 1034.312 17.011 C 1034.568 16.756 1034.568 16.342 1034.312 16.087 C 1034.057 15.832 1033.644 15.832 1033.388 16.087 L 1033.388 16.087 L 1033.388 16.087 L 1033.388 16.087 L 1033.388 16.087 L 1033.388 16.087 L 1033.388 16.087 Z  M 1042.389 19.832 C 1042.088 16.81 1040.739 13.962 1038.588 11.812 C 1036.75 9.974 1034.501 8.793 1032.134 8.268 L 1032.134 6.607 C 1033.101 6.367 1033.819 5.492 1033.819 4.452 C 1033.819 3.227 1032.823 2.23 1031.598 2.23 L 1026.893 2.23 C 1025.668 2.23 1024.672 3.227 1024.672 4.452 C 1024.672 5.492 1025.39 6.367 1026.357 6.607 L 1026.357 8.272 C 1023.997 8.8 1021.755 9.979 1019.922 11.812 C 1019.521 12.213 1019.152 12.633 1018.813 13.071 C 1018.797 13.069 1018.78 13.068 1018.764 13.068 L 1014.107 13.068 C 1013.747 13.068 1013.454 13.361 1013.454 13.722 C 1013.454 14.082 1013.747 14.375 1014.107 14.375 L 1017.924 14.375 C 1017.445 15.177 1017.059 16.019 1016.765 16.886 L 1009.653 16.886 C 1009.293 16.886 1009 17.179 1009 17.54 C 1009 17.901 1009.293 18.193 1009.653 18.193 L 1016.395 18.193 C 1016.207 19.02 1016.099 19.861 1016.071 20.705 L 1013.182 20.705 C 1012.821 20.705 1012.528 20.997 1012.528 21.358 C 1012.528 21.719 1012.821 22.011 1013.182 22.011 L 1016.092 22.011 C 1016.147 22.857 1016.283 23.698 1016.5 24.523 L 1012.267 24.523 C 1011.906 24.523 1011.614 24.815 1011.614 25.176 C 1011.614 25.537 1011.906 25.83 1012.267 25.83 L 1016.917 25.83 C 1017.558 27.525 1018.56 29.114 1019.922 30.477 C 1022.075 32.63 1024.926 33.98 1027.951 34.279 C 1028.382 34.321 1028.814 34.343 1029.246 34.343 C 1031.795 34.343 1034.312 33.605 1036.448 32.214 C 1036.751 32.017 1036.836 31.612 1036.639 31.31 C 1036.442 31.007 1036.038 30.922 1035.735 31.119 C 1031.06 34.163 1024.798 33.505 1020.846 29.553 C 1016.21 24.917 1016.21 17.372 1020.846 12.736 C 1025.483 8.099 1033.027 8.099 1037.664 12.736 C 1041.61 16.682 1042.272 22.939 1039.238 27.612 C 1039.041 27.914 1039.127 28.319 1039.43 28.516 C 1039.733 28.712 1040.137 28.626 1040.334 28.323 C 1041.955 25.826 1042.685 22.811 1042.389 19.832 L 1042.389 19.832 L 1042.389 19.832 L 1042.389 19.832 L 1042.389 19.832 L 1042.389 19.832 L 1042.389 19.832 L 1042.389 19.832 L 1042.389 19.832 Z  M 1029.255 29.974 C 1024.387 29.974 1020.426 26.013 1020.426 21.144 C 1020.426 16.276 1024.387 12.315 1029.255 12.315 C 1034.124 12.315 1038.085 16.276 1038.085 21.144 C 1038.085 26.013 1034.124 29.974 1029.255 29.974 L 1029.255 29.974 L 1029.255 29.974 L 1029.255 29.974 L 1029.255 29.974 L 1029.255 29.974 L 1029.255 29.974 L 1029.255 29.974 Z  M 1029.255 11.008 C 1023.666 11.008 1019.119 15.555 1019.119 21.144 C 1019.119 26.733 1023.666 31.28 1029.255 31.28 C 1034.844 31.28 1039.391 26.733 1039.391 21.144 C 1039.391 15.555 1034.844 11.008 1029.255 11.008 L 1029.255 11.008 L 1029.255 11.008 L 1029.255 11.008 L 1029.255 11.008 L 1029.255 11.008 L 1029.255 11.008 L 1029.255 11.008 Z  M 1009.653 24.523 C 1009.482 24.523 1009.313 24.592 1009.191 24.714 C 1009.07 24.836 1009 25.004 1009 25.176 C 1009 25.348 1009.07 25.516 1009.191 25.638 C 1009.313 25.759 1009.482 25.829 1009.653 25.829 C 1009.825 25.829 1009.994 25.759 1010.115 25.638 C 1010.237 25.516 1010.307 25.348 1010.307 25.176 C 1010.307 25.004 1010.237 24.836 1010.115 24.714 C 1009.994 24.592 1009.825 24.523 1009.653 24.523 Z " fill-rule="evenodd" fill="rgb(255,255,255)"/></svg>