<?xml version="1.0" encoding="UTF-8" standalone="no"?><!-- Generator: Gravit.io --><svg xmlns="http://www.w3.org/2000/svg" xmlns:xlink="http://www.w3.org/1999/xlink" style="isolation:isolate" viewBox="8.387 292.299 55.613 48.667" width="55.613pt" height="48.667pt"><g><path d=" M 61.458 316.002 L 50.966 312.07 L 50.966 300.285 C 50.966 298.656 49.956 297.2 48.424 296.625 L 37.562 292.551 C 36.682 292.215 35.705 292.215 34.814 292.551 L 23.952 296.625 C 22.421 297.2 21.411 298.656 21.411 300.285 L 21.411 312.07 L 10.918 316.002 C 9.397 316.578 8.387 318.033 8.387 319.663 L 8.387 331.622 C 8.387 333.099 9.224 334.457 10.549 335.119 L 21.411 340.55 C 22.508 341.104 23.811 341.104 24.908 340.55 L 36.194 334.902 L 47.479 340.55 C 48.576 341.104 49.88 341.104 50.977 340.55 L 61.838 335.119 C 63.164 334.457 64 333.099 64 331.622 L 64 319.663 C 64 318.033 62.99 316.578 61.458 316.002 L 61.458 316.002 Z  M 47.273 312.157 L 38.04 315.622 L 38.04 308.214 L 47.273 304.195 L 47.273 312.157 Z  M 25.114 300.133 L 36.194 295.984 L 47.273 300.133 L 47.273 300.198 L 36.194 304.695 L 25.114 300.198 L 25.114 300.133 Z  M 34.238 331.752 L 25.006 336.368 L 25.006 327.777 L 34.238 323.562 L 34.238 331.752 Z  M 34.238 319.587 L 23.159 324.084 L 12.08 319.587 L 12.08 319.522 L 23.159 315.372 L 34.238 319.522 L 34.238 319.587 Z  M 60.307 331.752 L 51.074 336.368 L 51.074 327.777 L 60.307 323.562 L 60.307 331.752 Z  M 60.307 319.587 L 49.228 324.084 L 38.149 319.587 L 38.149 319.522 L 49.228 315.372 L 60.307 319.522 L 60.307 319.587 Z " fill="rgb(255,0,93)"/></g></svg>