<?xml version="1.0" encoding="UTF-8" standalone="no"?><!-- Generator: Gravit.io --><svg xmlns="http://www.w3.org/2000/svg" xmlns:xlink="http://www.w3.org/1999/xlink" style="isolation:isolate" viewBox="1090 2.23 49 49" width="49pt" height="49pt"><g><circle vector-effect="non-scaling-stroke" cx="1114.5" cy="26.730189772571364" r="24.5" fill="rgb(207,225,255)"/><path d=" M 1132.776 25.792 C 1129.293 18.996 1122.397 14.397 1114.5 14.397 C 1106.603 14.397 1099.705 18.999 1096.224 25.793 C 1095.925 26.382 1095.925 27.079 1096.224 27.668 C 1099.707 34.465 1106.603 39.064 1114.5 39.064 C 1122.397 39.064 1129.295 34.462 1132.776 27.667 C 1133.075 27.078 1133.075 26.382 1132.776 25.792 L 1132.776 25.792 Z  M 1114.5 35.98 C 1109.391 35.98 1105.25 31.839 1105.25 26.73 C 1105.25 21.622 1109.391 17.48 1114.5 17.48 C 1119.609 17.48 1123.75 21.622 1123.75 26.73 C 1123.751 29.184 1122.777 31.537 1121.042 33.272 C 1119.307 35.007 1116.954 35.981 1114.5 35.98 L 1114.5 35.98 Z  M 1114.5 20.564 C 1113.95 20.571 1113.403 20.653 1112.874 20.807 C 1113.774 22.03 1113.646 23.728 1112.572 24.802 C 1111.498 25.876 1109.8 26.005 1108.577 25.104 C 1107.885 27.651 1108.895 30.355 1111.087 31.825 C 1113.278 33.296 1116.163 33.204 1118.258 31.599 C 1120.352 29.993 1121.189 27.231 1120.339 24.733 C 1119.488 22.235 1117.139 20.557 1114.5 20.564 Z " fill="rgb(0,98,255)"/></g></svg>