<?xml version="1.0" encoding="UTF-8" standalone="no"?><!-- Generator: Gravit.io --><svg xmlns="http://www.w3.org/2000/svg" xmlns:xlink="http://www.w3.org/1999/xlink" style="isolation:isolate" viewBox="1193.251 2.23 49 49" width="49pt" height="49pt"><g><circle vector-effect="non-scaling-stroke" cx="1217.7513163749222" cy="26.73018977257136" r="24.5" fill="rgb(255,228,188)"/><path d=" M 1232.16 19.942 L 1229.414 22.688 C 1229.134 22.968 1228.681 22.968 1228.401 22.688 L 1221.789 16.076 C 1221.509 15.796 1221.509 15.343 1221.789 15.063 L 1224.535 12.317 C 1225.649 11.203 1227.46 11.203 1228.58 12.317 L 1232.16 15.897 C 1233.28 17.011 1233.28 18.822 1232.16 19.942 Z  M 1219.43 17.422 L 1203.788 33.064 L 1202.525 40.302 C 1202.352 41.279 1203.204 42.125 1204.181 41.958 L 1211.419 40.689 L 1227.061 25.047 C 1227.341 24.767 1227.341 24.314 1227.061 24.034 L 1220.449 17.422 C 1220.163 17.142 1219.71 17.142 1219.43 17.422 L 1219.43 17.422 Z  M 1209.894 31.724 C 1209.566 31.396 1209.566 30.872 1209.894 30.545 L 1219.067 21.371 C 1219.395 21.044 1219.919 21.044 1220.247 21.371 C 1220.574 21.699 1220.574 22.223 1220.247 22.551 L 1211.073 31.724 C 1210.745 32.052 1210.221 32.052 1209.894 31.724 L 1209.894 31.724 Z  M 1207.743 36.734 L 1210.602 36.734 L 1210.602 38.896 L 1206.76 39.569 L 1204.908 37.717 L 1205.581 33.874 L 1207.743 33.874 L 1207.743 36.734 Z " fill="rgb(255,153,0)"/></g></svg>