<?xml version="1.0" encoding="UTF-8" standalone="no"?><!-- Generator: Gravit.io --><svg xmlns="http://www.w3.org/2000/svg" xmlns:xlink="http://www.w3.org/1999/xlink" style="isolation:isolate" viewBox="1139 88 49 49" width="49pt" height="49pt"><g><circle vector-effect="non-scaling-stroke" cx="1163.5" cy="112.5" r="24.5" fill="rgb(255,185,185)"/><path d=" M 1152.429 124.494 C 1152.429 126.023 1153.668 127.262 1155.196 127.262 L 1171.804 127.262 C 1173.332 127.262 1174.571 126.023 1174.571 124.494 L 1174.571 105.119 L 1152.429 105.119 L 1152.429 124.494 Z  M 1168.113 109.732 C 1168.113 109.223 1168.526 108.81 1169.036 108.81 C 1169.545 108.81 1169.958 109.223 1169.958 109.732 L 1169.958 122.649 C 1169.958 123.158 1169.545 123.571 1169.036 123.571 C 1168.526 123.571 1168.113 123.158 1168.113 122.649 L 1168.113 109.732 Z  M 1162.577 109.732 C 1162.577 109.223 1162.99 108.81 1163.5 108.81 C 1164.01 108.81 1164.423 109.223 1164.423 109.732 L 1164.423 122.649 C 1164.423 123.158 1164.01 123.571 1163.5 123.571 C 1162.99 123.571 1162.577 123.158 1162.577 122.649 L 1162.577 109.732 Z  M 1157.042 109.732 C 1157.042 109.223 1157.455 108.81 1157.964 108.81 C 1158.474 108.81 1158.887 109.223 1158.887 109.732 L 1158.887 122.649 C 1158.887 123.158 1158.474 123.571 1157.964 123.571 C 1157.455 123.571 1157.042 123.158 1157.042 122.649 L 1157.042 109.732 Z  M 1175.494 99.583 L 1168.574 99.583 L 1168.032 98.505 C 1167.798 98.035 1167.318 97.738 1166.793 97.738 L 1160.202 97.738 C 1159.677 97.736 1159.198 98.034 1158.968 98.505 L 1158.426 99.583 L 1151.506 99.583 C 1150.996 99.583 1150.583 99.996 1150.583 100.506 L 1150.583 102.351 C 1150.583 102.861 1150.996 103.274 1151.506 103.274 L 1175.494 103.274 C 1176.004 103.274 1176.417 102.861 1176.417 102.351 L 1176.417 100.506 C 1176.417 99.996 1176.004 99.583 1175.494 99.583 Z " fill="rgb(255,0,0)"/></g></svg>