<?xml version="1.0" encoding="UTF-8" standalone="no"?><!-- Generator: Gravit.io --><svg xmlns="http://www.w3.org/2000/svg" xmlns:xlink="http://www.w3.org/1999/xlink" style="isolation:isolate" viewBox="8 106.081 61 61" width="61pt" height="61pt"><g><path d=" M 15.5 136.581 C 15.5 123.887 25.806 113.581 38.5 113.581 C 51.194 113.581 61.5 123.887 61.5 136.581 C 61.5 149.275 51.194 159.581 38.5 159.581 C 25.806 159.581 15.5 149.275 15.5 136.581 Z " fill-rule="evenodd" fill="none" vector-effect="non-scaling-stroke" stroke-width="5" stroke="rgb(255,255,255)" stroke-linejoin="miter" stroke-linecap="square" stroke-miterlimit="3"/><path d=" M 53.675 138.777 L 43.622 144.581 L 33.57 150.385 C 30.514 152.149 28.034 150.717 28.034 147.189 L 28.034 135.581 L 28.034 123.974 C 28.034 120.445 30.514 119.013 33.57 120.777 L 43.622 126.581 L 53.675 132.385 C 56.73 134.149 56.73 137.013 53.675 138.777 Z " fill="rgb(255,255,255)"/></g></svg>