<?xml version="1.0" encoding="UTF-8" standalone="no"?><!-- Generator: Gravit.io --><svg xmlns="http://www.w3.org/2000/svg" xmlns:xlink="http://www.w3.org/1999/xlink" style="isolation:isolate" viewBox="473 248 115 115" width="115pt" height="115pt"><path d=" M 484.25 305.5 C 484.25 279.974 504.974 259.25 530.5 259.25 C 556.026 259.25 576.75 279.974 576.75 305.5 C 576.75 331.026 556.026 351.75 530.5 351.75 C 504.974 351.75 484.25 331.026 484.25 305.5 L 484.25 305.5 Z  M 473 305.5 C 473 273.765 498.765 248 530.5 248 C 562.235 248 588 273.765 588 305.5 C 588 337.235 562.235 363 530.5 363 C 498.765 363 473 337.235 473 305.5 L 473 305.5 Z  M 512.137 329.282 L 512.078 305.5 L 512.02 281.718 C 512.009 277.343 515.081 275.559 518.875 277.738 L 539.5 289.578 L 560.125 301.418 C 563.919 303.596 563.928 307.148 560.145 309.345 L 539.578 321.287 L 519.012 333.229 C 515.228 335.426 512.147 333.657 512.137 329.282 Z " fill-rule="evenodd" fill="rgb(255,0,64)"/></svg>