<?xml version="1.0" encoding="UTF-8" standalone="no"?><!-- Generator: Gravit.io --><svg xmlns="http://www.w3.org/2000/svg" xmlns:xlink="http://www.w3.org/1999/xlink" style="isolation:isolate" viewBox="13.387 473.683 48.613 40.009" width="48.613pt" height="40.009pt"><g><path d=" M 59.974 473.683 L 20.814 473.683 C 19.695 473.683 18.789 474.803 18.789 476.184 L 18.789 477.017 L 15.413 477.017 C 14.294 477.017 13.387 478.137 13.387 479.518 L 13.387 507.858 C 13.387 511.08 15.503 513.692 18.113 513.692 L 57.949 513.692 C 60.186 513.692 62 511.453 62 508.691 L 62 476.184 C 62 474.803 61.093 473.683 59.974 473.683 Z  M 18.113 508.691 C 17.741 508.691 17.438 508.318 17.438 507.858 L 17.438 482.019 L 18.789 482.019 L 18.789 507.858 C 18.789 508.318 18.486 508.691 18.113 508.691 Z  M 38.031 507.024 L 25.203 507.024 C 24.643 507.024 24.19 506.464 24.19 505.774 L 24.19 504.94 C 24.19 504.25 24.643 503.69 25.203 503.69 L 38.031 503.69 C 38.59 503.69 39.044 504.25 39.044 504.94 L 39.044 505.774 C 39.044 506.464 38.59 507.024 38.031 507.024 Z  M 55.586 507.024 L 42.757 507.024 C 42.198 507.024 41.745 506.464 41.745 505.774 L 41.745 504.94 C 41.745 504.25 42.198 503.69 42.757 503.69 L 55.586 503.69 C 56.145 503.69 56.599 504.25 56.599 504.94 L 56.599 505.774 C 56.599 506.464 56.145 507.024 55.586 507.024 Z  M 38.031 497.022 L 25.203 497.022 C 24.643 497.022 24.19 496.462 24.19 495.772 L 24.19 494.938 C 24.19 494.248 24.643 493.688 25.203 493.688 L 38.031 493.688 C 38.59 493.688 39.044 494.248 39.044 494.938 L 39.044 495.772 C 39.044 496.462 38.59 497.022 38.031 497.022 Z  M 55.586 497.022 L 42.757 497.022 C 42.198 497.022 41.745 496.462 41.745 495.772 L 41.745 494.938 C 41.745 494.248 42.198 493.688 42.757 493.688 L 55.586 493.688 C 56.145 493.688 56.599 494.248 56.599 494.938 L 56.599 495.772 C 56.599 496.462 56.145 497.022 55.586 497.022 Z  M 55.586 487.02 L 25.203 487.02 C 24.643 487.02 24.19 486.46 24.19 485.769 L 24.19 481.602 C 24.19 480.911 24.643 480.352 25.203 480.352 L 55.586 480.352 C 56.145 480.352 56.599 480.911 56.599 481.602 L 56.599 485.769 C 56.599 486.46 56.145 487.02 55.586 487.02 Z " fill="rgb(255,0,93)"/></g></svg>