<?xml version="1.0" encoding="UTF-8" standalone="no"?><!-- Generator: Gravit.io --><svg xmlns="http://www.w3.org/2000/svg" xmlns:xlink="http://www.w3.org/1999/xlink" style="isolation:isolate" viewBox="1049 5.76 25.054 25.054" width="25.054pt" height="25.054pt"><path d=" M 1061.527 15.842 L 1051.951 6.266 C 1051.276 5.591 1050.181 5.591 1049.506 6.266 L 1049.506 6.266 C 1048.831 6.94 1048.831 8.036 1049.506 8.71 L 1059.082 18.286 L 1049.506 27.862 C 1048.831 28.537 1048.831 29.633 1049.506 30.307 L 1049.506 30.307 C 1050.181 30.982 1051.276 30.982 1051.951 30.307 L 1061.527 20.731 L 1071.103 30.307 C 1071.778 30.982 1072.873 30.982 1073.548 30.307 L 1073.548 30.307 C 1074.222 29.633 1074.222 28.537 1073.548 27.862 L 1063.972 18.286 L 1073.548 8.71 C 1074.222 8.036 1074.222 6.94 1073.548 6.266 L 1073.548 6.266 C 1072.873 5.591 1071.778 5.591 1071.103 6.266 L 1061.527 15.842 Z " fill-rule="evenodd" fill="rgb(255,255,255)"/></svg>